<?xml version="1.0" encoding="utf-8"?>
<!-- Generator: Adobe Illustrator 25.4.1, SVG Export Plug-In . SVG Version: 6.00 Build 0)  -->
<svg version="1.1" id="Layer_1" xmlns="http://www.w3.org/2000/svg" xmlns:xlink="http://www.w3.org/1999/xlink" x="0px" y="0px"
	 viewBox="0 0 571.2 571.2" style="enable-background:new 0 0 571.2 571.2;" xml:space="preserve">
<style type="text/css">
	.st0{fill:#FFFFFF;}
</style>
<g id="Layer_2_00000157304753341768075680000005531020785907504550_">
	<g id="layer">
		<path class="st0" d="M285.6,0C127.9,0,0,127.9,0,285.6s127.9,285.6,285.6,285.6s285.6-127.9,285.6-285.6S443.4,0,285.6,0z
			 M286.3,90c32.2,0,44.4,19.2,48.6,40.5c-3,2.3-5.7,4.8-8.3,7.5l-40.3,40.3l-39.5-39.5c-3.1-3.1-6-5.7-9.1-8.3
			C241.9,109.2,254.1,90,286.3,90z M148.1,147.1c31.2-30.9,61.1-10.4,80.8,9.4l39.5,39.5l-13.5,13.5c0,0-108.6,0.3-112.5,0.5
			C130.4,192.1,125.2,170,148.1,147.1L148.1,147.1z M90.1,284.8c0-41.6,35.8-50.4,63.7-50.4h76.1c0,0-95.3,96.1-98.2,98.7
			C110.2,328.8,90.1,316,90.1,284.8z M148.3,422.8c-30.9-31.2-10.4-61,9.4-80.8l186.2-186.2c19.7-19.8,51.2-39,80.8-9.4
			s10.4,61-9.4,80.8L229.1,413.4C209.4,433.2,179.5,454,148.3,422.8z M286,481.2c-30.9,0-43.9-20-48.3-41.6c2.9-2.6,5.7-5.2,8.8-8.3
			l39.5-39.5l40.3,40.3c2.9,2.6,5.5,4.9,8,7.5C329.9,461.2,317.2,481.2,286,481.2z M425,423.6c-29.6,29.4-61,10.4-80.8-9.4
			L303.9,374l13.5-13.5c0,0,108.3-0.3,112.2-0.5C441.9,378.4,447.1,401.5,425,423.6z M417.5,335.5h-75.1c0,0,95.9-96.1,98.2-99
			c21.3,4.1,40.5,16.4,40.5,48.6C481.1,329,445.2,335.5,417.5,335.5L417.5,335.5z"/>
	</g>
</g>
</svg>
