<svg xmlns="http://www.w3.org/2000/svg" viewBox="0 0 512 512"><defs><style>.cls-1{fill:#fff;}.cls-2{fill:#2d326f;}.cls-3{fill:#ed5044;}</style></defs><g id="Layer_2" data-name="Layer 2"><g id="Layer_1-2" data-name="Layer 1"><circle class="cls-1" cx="256" cy="256" r="256"/><path class="cls-2" d="M52.92,100.14a255.07,255.07,0,0,0-44.1,89.08H142Z"/><path class="cls-2" d="M503.18,189.22a255.07,255.07,0,0,0-44.1-89.08L370,189.22Z"/><path class="cls-2" d="M8.82,322.78a254.9,254.9,0,0,0,44.1,89.08L142,322.78Z"/><path class="cls-2" d="M411.86,52.92a254.9,254.9,0,0,0-89.08-44.1V142Z"/><path class="cls-2" d="M100.14,459.08a255.07,255.07,0,0,0,89.08,44.1V370Z"/><path class="cls-2" d="M189.22,8.82a254.9,254.9,0,0,0-89.08,44.1L189.22,142Z"/><path class="cls-2" d="M322.78,503.18a254.9,254.9,0,0,0,89.08-44.1L322.78,370Z"/><path class="cls-2" d="M370,322.78l89.07,89.08a254.9,254.9,0,0,0,44.1-89.08Z"/><path class="cls-3" d="M509.83,222.61H289.39V2.17a258.27,258.27,0,0,0-66.78,0V222.61H2.17a258.27,258.27,0,0,0,0,66.78H222.61V509.83a258.27,258.27,0,0,0,66.78,0V289.39H509.83a258.27,258.27,0,0,0,0-66.78Z"/><path class="cls-3" d="M322.78,322.78h0L437,437q7.88-7.87,15.05-16.44l-97.8-97.8Z"/><path class="cls-3" d="M189.22,322.78h0L75,437q7.88,7.88,16.44,15.05l97.8-97.81V322.78Z"/><path class="cls-3" d="M189.22,189.22h0L75,75q-7.87,7.88-15,16.44l97.81,97.8Z"/><path class="cls-3" d="M322.78,189.22h0L437,75q-7.87-7.87-16.44-15l-97.8,97.81Z"/></g></g></svg>