<svg xmlns="http://www.w3.org/2000/svg" viewBox="0 0 511.89 511.96"><defs><style>.cls-1{fill:#ed5044;}.cls-2{fill:#fff;}.cls-3{fill:#2d326f;}</style></defs><g id="Layer_2" data-name="Layer 2"><g id="Layer_1-2" data-name="Layer 1"><path class="cls-1" d="M511.89,248.69c-.05-1.84-.12-3.68-.21-5.51,0-.49-.06-1-.08-1.48-.08-1.36-.17-2.73-.26-4.09,0-.72-.11-1.45-.16-2.17-.13-1.6-.27-3.19-.43-4.77-.08-.86-.18-1.71-.27-2.56s-.21-1.93-.33-2.89A255.23,255.23,0,0,0,437,75h0c-1.33-1.33-2.71-2.67-4.14-4-.91-.87-1.83-1.72-2.76-2.58-.43-.4-.86-.81-1.29-1.2-1.27-1.17-2.56-2.31-3.85-3.45l-.21-.18a255.58,255.58,0,0,0-83.42-49V497.41A256,256,0,0,0,437,437h0c1.33-1.33,2.67-2.71,4-4.14.86-.9,1.71-1.82,2.56-2.73l1.23-1.33c1.15-1.25,2.28-2.51,3.4-3.8l.24-.26q1.79-2,3.54-4.13v-.05h0q3.6-4.28,7-8.72h0l.06-.08q1.83-2.38,3.6-4.81l.11-.14c1.18-1.62,2.35-3.25,3.49-4.9l.1-.14q1.71-2.47,3.38-5l.08-.13c1.11-1.68,2.21-3.38,3.28-5.09l.07-.12c1.07-1.72,2.13-3.45,3.16-5.19l.06-.11c1-1.75,2-3.52,3-5.29l.05-.09q1.48-2.67,2.93-5.39v-.07q1.44-2.73,2.82-5.49v-.05q1.38-2.78,2.69-5.59h0c.88-1.88,1.73-3.77,2.57-5.68h0a253.8,253.8,0,0,0,19.5-71.67q.18-1.46.33-2.91c.09-.85.19-1.69.27-2.54.16-1.59.3-3.19.43-4.78.05-.72.1-1.45.16-2.17.09-1.36.18-2.73.26-4.1,0-.49.06-1,.08-1.47.09-1.83.16-3.67.21-5.51v-1.49c0-1.94.07-3.87.07-5.82s0-3.88-.07-5.82A3,3,0,0,0,511.89,248.69Z"/><path class="cls-2" d="M248.69.11c-1.84.05-3.68.12-5.51.21L241.71.4l-4.1.26-2.17.16c-1.6.13-3.19.27-4.77.43-.86.08-1.71.18-2.57.27s-1.92.21-2.87.33a254.83,254.83,0,0,0-54.56,12.74V497.41a254.05,254.05,0,0,0,54.54,12.74c1,.12,1.93.23,2.9.33s1.7.19,2.56.27c1.58.16,3.17.3,4.77.43l2.17.16,4.1.26,1.47.08c1.83.09,3.67.16,5.51.21h1.49c1.91,0,3.83.07,5.75.07h.14c1.92,0,3.84,0,5.75-.07h1.49q2.76-.08,5.52-.21l1.42-.08,4.17-.26,2.12-.16c1.61-.13,3.21-.27,4.81-.43l2.51-.26,2.94-.34a254.56,254.56,0,0,0,54.53-12.74V14.6A254.07,254.07,0,0,0,286.79,1.85c-1-.12-1.93-.23-2.9-.33s-1.7-.19-2.56-.27c-1.58-.16-3.17-.3-4.77-.43L274.38.66C273,.57,271.66.48,270.3.41L268.82.32C267,.23,265.15.16,263.31.11h-1.49C259.88,0,257.94,0,256,0s-3.88,0-5.82.07Z"/><path class="cls-3" d="M.11,263.31c.05,1.84.12,3.68.21,5.51,0,.49.06,1,.08,1.47.08,1.37.17,2.74.26,4.1.06.72.11,1.45.16,2.17.13,1.6.27,3.19.43,4.77.08.86.18,1.71.27,2.57s.21,1.92.33,2.87A254.34,254.34,0,0,0,35.56,386.2h0c1,1.78,2.13,3.54,3.22,5.29h0q1.63,2.61,3.33,5.18h0c1.13,1.71,2.28,3.4,3.45,5.09v.05c1.17,1.68,2.35,3.34,3.56,5v.05q1.8,2.47,3.66,4.9h0A257.28,257.28,0,0,0,75,437h0c1.33,1.33,2.71,2.67,4.13,4,.91.86,1.84,1.72,2.76,2.57.43.41.86.82,1.3,1.22q1.89,1.72,3.81,3.4l.26.24q2,1.79,4.13,3.54h0a255.37,255.37,0,0,0,79.25,45.34V14.6A256.09,256.09,0,0,0,75,75h0c-1.33,1.33-2.67,2.71-4,4.14-.86.9-1.71,1.82-2.56,2.74L67.21,83.2c-1.15,1.25-2.29,2.52-3.4,3.8l-.24.26q-1.78,2-3.54,4.13h0A254.75,254.75,0,0,0,1.85,225.22c-.12,1-.23,1.92-.33,2.89s-.19,1.7-.27,2.56c-.16,1.58-.3,3.17-.43,4.77,0,.72-.11,1.45-.16,2.18C.57,239,.48,240.34.4,241.71c0,.49-.06,1-.08,1.48-.09,1.82-.16,3.66-.21,5.5v1.49C0,252.12,0,254.06,0,256s0,3.88.07,5.82C.08,262.32.1,262.81.11,263.31Z"/></g></g></svg>