<svg xmlns="http://www.w3.org/2000/svg" width="24" height="24" viewBox="0 0 24 24">
  <path id="Tracé_50" data-name="Tracé 50" d="M12,0A12.047,12.047,0,0,0,0,12,12.455,12.455,0,0,0,9.188,24V20.03a2.889,2.889,0,0,1-3.239-1.441c-.273-.46-.756-.959-1.26-.922l-.124-1.4a2.892,2.892,0,0,1,2.593,1.6,1.555,1.555,0,0,0,.9.772,1.89,1.89,0,0,0,1.181-.1,3.3,3.3,0,0,1,.827-1.691h0C6.942,16.382,5.7,14.724,5.2,13.415a5.506,5.506,0,0,1,.855-5.281A.188.188,0,0,0,6.1,7.989a4.6,4.6,0,0,1,.14-3.073,4.858,4.858,0,0,1,2.663,1l.337.2c.141.084.1.036.238.025A10.182,10.182,0,0,1,12,5.792a10.225,10.225,0,0,1,2.553.363l.109.011c-.01,0,.03-.007.1-.046,2.436-1.476,2.349-.993,3-1.206A4.682,4.682,0,0,1,17.9,7.989c-.071.218,2.112,2.217.9,5.426-.494,1.309-1.74,2.968-4.865,3.434h0a3.086,3.086,0,0,1,.879,2.2V24A12.454,12.454,0,0,0,24,12,12.047,12.047,0,0,0,12,0Z" fill="#fff"/>
</svg>
