<svg xmlns="http://www.w3.org/2000/svg" width="28.894" height="28" viewBox="0 0 28.894 28"><path d="M26.24,5.917a.226.226,0,0,0,0-.027c-.036-.05-.081-.093-.118-.142q-.4-.534-.857-1.028c-.083-.09-.165-.179-.25-.267q-.466-.483-.977-.921c-.063-.054-.122-.11-.185-.163a14.5,14.5,0,0,0-2.74-1.792c-.039-.02-.081-.037-.121-.057A14.592,14.592,0,0,0,19.649.94c-.1-.036-.2-.07-.3-.1q-.61-.213-1.239-.373C17.991.434,17.867.4,17.741.373,17.328.28,16.915.209,16.493.151c-.128-.018-.254-.042-.383-.057a14,14,0,0,0-3.275,0c-.129.015-.255.039-.383.057C12.03.209,11.613.28,11.2.373c-.126.028-.25.061-.374.093Q10.2.626,9.592.84c-.1.034-.2.068-.3.1a14.582,14.582,0,0,0-1.342.579c-.04.02-.082.037-.121.057A14.51,14.51,0,0,0,5.085,3.368c-.063.053-.122.109-.185.163a13.243,13.243,0,0,0-.977.921c-.085.088-.167.177-.25.267q-.453.493-.857,1.028c-.037.049-.082.092-.118.142a.224.224,0,0,0-.012.027,13.563,13.563,0,0,0,0,16.163.214.214,0,0,0,.012.027c.036.05.081.093.118.142q.4.534.857,1.028c.083.09.165.179.25.267q.467.483.977.921c.063.054.122.11.185.163a14.5,14.5,0,0,0,2.74,1.792c.039.02.081.037.121.057a14.59,14.59,0,0,0,1.342.579c.1.036.2.07.3.1q.61.213,1.239.373c.124.032.248.065.374.093.413.093.826.164,1.248.222.128.018.254.042.383.057a14,14,0,0,0,3.275,0c.129-.015.255-.039.383-.057.422-.058.839-.129,1.248-.222.126-.028.25-.061.374-.093q.634-.16,1.239-.373c.1-.034.2-.068.3-.1a14.581,14.581,0,0,0,1.342-.579c.04-.02.082-.037.121-.057a14.507,14.507,0,0,0,2.74-1.792c.063-.053.122-.109.185-.163A12.964,12.964,0,0,0,25,23.544c.085-.088.167-.177.25-.267q.453-.494.857-1.028c.037-.049.082-.092.118-.142a.222.222,0,0,0,.012-.027A13.563,13.563,0,0,0,26.24,5.917ZM25.062,7.81A11.649,11.649,0,0,1,26.8,13H20.62a18.133,18.133,0,0,0-.578-3.53A18.957,18.957,0,0,0,25.062,7.81ZM17.1,2.271c.058.013.114.031.171.044.37.084.736.18,1.094.3.055.018.108.039.162.058q.533.18,1.048.4c.06.027.119.057.179.084q.492.227.962.491l.206.121q.446.264.867.565c.072.051.144.1.216.156a9.354,9.354,0,0,1,.791.643c.066.058.134.115.2.175.264.243.516.5.76.766.031.035.064.067.095.1a17.713,17.713,0,0,1-4.4,1.37A25.137,25.137,0,0,0,16.664,2.2C16.807,2.227,16.954,2.241,17.1,2.271ZM10.377,13a16.22,16.22,0,0,1,.568-3.2,30.517,30.517,0,0,0,3.524.2A30.585,30.585,0,0,0,18,9.792,16.189,16.189,0,0,1,18.561,13Zm8.184,2a16.22,16.22,0,0,1-.568,3.2,31.174,31.174,0,0,0-7.052,0,16.194,16.194,0,0,1-.565-3.2ZM14.469,2.647a23.925,23.925,0,0,1,2.877,5.2A28.188,28.188,0,0,1,14.469,8a28.4,28.4,0,0,1-2.874-.149A24.112,24.112,0,0,1,14.469,2.647ZM5.188,6.074c.243-.266.5-.523.76-.766.065-.06.133-.117.2-.175q.382-.337.791-.643c.071-.053.143-.1.216-.156q.421-.3.867-.565l.206-.121q.47-.266.962-.491c.06-.027.119-.057.179-.084q.514-.225,1.048-.4c.054-.019.1-.04.162-.058.358-.116.723-.212,1.094-.3.058-.013.114-.031.172-.043.141-.03.288-.044.432-.069A25.139,25.139,0,0,0,9.5,7.546a17.713,17.713,0,0,1-4.4-1.37C5.124,6.141,5.157,6.109,5.188,6.074ZM3.875,7.81A18.954,18.954,0,0,0,8.894,9.468,18.132,18.132,0,0,0,8.317,13H2.134A11.65,11.65,0,0,1,3.875,7.81Zm0,12.378A11.649,11.649,0,0,1,2.134,15H8.317a18.132,18.132,0,0,0,.578,3.53A18.953,18.953,0,0,0,3.875,20.187Zm7.967,5.539c-.058-.013-.114-.031-.171-.044-.37-.084-.736-.18-1.094-.3-.055-.018-.108-.039-.162-.058q-.533-.18-1.048-.4c-.06-.027-.119-.057-.179-.084q-.492-.227-.962-.491l-.206-.121q-.446-.264-.867-.565c-.072-.051-.145-.1-.216-.156a9.355,9.355,0,0,1-.791-.643c-.066-.058-.134-.115-.2-.175-.264-.243-.516-.5-.76-.766-.031-.035-.064-.067-.095-.1a17.713,17.713,0,0,1,4.4-1.37,25.137,25.137,0,0,0,2.779,5.344C12.131,25.77,11.984,25.756,11.843,25.726Zm2.626-.376a23.925,23.925,0,0,1-2.877-5.2,27.73,27.73,0,0,1,5.752,0h0A24.107,24.107,0,0,1,14.469,25.35Zm9.28-3.427c-.243.266-.5.523-.76.766-.065.06-.133.117-.2.175q-.382.338-.791.643c-.071.053-.143.105-.216.156q-.421.3-.867.565l-.206.121q-.469.265-.962.491c-.06.027-.119.057-.179.084q-.514.225-1.048.4c-.054.019-.1.04-.162.058-.358.116-.723.212-1.094.3-.058.013-.114.031-.172.043-.141.03-.288.044-.432.069a25.135,25.135,0,0,0,2.779-5.344,17.712,17.712,0,0,1,4.4,1.37C23.813,21.856,23.78,21.888,23.749,21.923Zm1.313-1.735a18.954,18.954,0,0,0-5.019-1.658A18.132,18.132,0,0,0,20.62,15H26.8A11.651,11.651,0,0,1,25.062,20.187Z" transform="translate(-0.016 0.002)"/></svg>