<svg xmlns="http://www.w3.org/2000/svg" viewBox="0 0 571.25 571.25"><g id="Layer_2" data-name="Layer 2"><g id="layer"><path d="M285.62,0C127.88,0,0,127.88,0,285.62S127.88,571.25,285.62,571.25,571.25,443.37,571.25,285.62,443.37,0,285.62,0Zm.65,90c32.21,0,44.42,19.23,48.58,40.53a74.08,74.08,0,0,0-8.31,7.53l-40.27,40.27-39.48-39.49c-3.12-3.12-6-5.71-9.09-8.31C241.85,109.24,254.06,90,286.27,90Zm-138.2,57.15c31.18-30.91,61.05-10.39,80.79,9.36L268.35,196l-13.51,13.51s-108.58.26-112.48.52C130.41,192.11,125.21,170,148.07,147.16ZM90.14,284.84c0-41.56,35.85-50.39,63.65-50.39H229.9s-95.33,96.11-98.19,98.71C110.15,328.75,90.14,316,90.14,284.84Zm58.19,137.94c-30.91-31.17-10.39-61,9.36-80.79L343.94,155.74c19.74-19.75,51.18-39,80.79-9.35s10.39,61-9.35,80.78L229.12,413.43C209.38,433.17,179.51,454,148.33,422.78ZM286,481.23c-30.91,0-43.9-20-48.31-41.56,2.85-2.6,5.71-5.2,8.83-8.31L286,391.87l40.27,40.26c2.85,2.6,5.45,4.94,8.05,7.54C329.91,461.23,317.19,481.23,286,481.23Zm139-57.67c-29.61,29.36-61.05,10.39-80.79-9.35L303.94,374l13.51-13.51s108.32-.26,112.22-.52C441.88,378.36,447.07,401.48,425,423.56Zm-7.53-88.06H342.38s95.86-96.12,98.2-99c21.3,4.15,40.52,16.36,40.52,48.57C481.1,329,445.25,335.5,417.46,335.5Z"/></g></g></svg>