<svg xmlns="http://www.w3.org/2000/svg" viewBox="0 0 315.15 315.15"><defs><style>.cls-1{fill:#f37474;}.cls-2{fill:#fff;}</style></defs><g id="Layer_2" data-name="Layer 2"><g id="Layer_1-2" data-name="Layer 1"><rect class="cls-1" width="315.15" height="315.15" rx="46.83"/><path class="cls-2" d="M251.59,106.09a12,12,0,0,0-12,12v79a12,12,0,1,0,23.95,0v-79A12,12,0,0,0,251.59,106.09Z"/><path class="cls-2" d="M188.92,106.09H157.57a12,12,0,0,0-12,12v79a12,12,0,1,0,24,0v-22.7h19.37a34.15,34.15,0,0,0,0-68.29Zm0,44.34H169.55V130h19.36a10.2,10.2,0,1,1,0,20.39Z"/><path class="cls-2" d="M90.3,106.1a38.75,38.75,0,0,0-38.72,38.72v52.26a12,12,0,1,0,24,0v-22.7h29.55v22.7a12,12,0,1,0,24,0V144.82A38.77,38.77,0,0,0,90.3,106.1Zm14.78,44.33H75.53v-5.61a14.78,14.78,0,1,1,29.55,0Z"/></g></g></svg>