<?xml version="1.0" standalone="no"?>
<!DOCTYPE svg PUBLIC "-//W3C//DTD SVG 20010904//EN"
 "http://www.w3.org/TR/2001/REC-SVG-20010904/DTD/svg10.dtd">
<svg version="1.0" xmlns="http://www.w3.org/2000/svg"
 width="700.000000pt" height="700.000000pt" viewBox="0 0 700.000000 700.000000"
 preserveAspectRatio="xMidYMid meet">
<metadata>
Created by potrace 1.14, written by Peter Selinger 2001-2017
</metadata>
<g transform="translate(0.000000,700.000000) scale(0.100000,-0.100000)"
fill="#000000" stroke="none">
<path d="M515 6985 c-226 -50 -400 -204 -479 -425 l-31 -85 0 -2975 0 -2975
31 -85 c69 -194 210 -335 404 -404 l85 -31 2970 0 c2851 0 2972 1 3030 18 223
69 383 229 452 452 17 58 18 179 18 3030 l0 2970 -31 85 c-69 195 -209 335
-404 404 l-85 31 -2950 2 c-2418 1 -2961 -1 -3010 -12z m4242 -3328 c-1 -4
-118 -123 -260 -265 l-257 -258 -580 581 -580 580 -477 -477 -478 -478 580
-580 580 -580 -260 -262 c-143 -144 -260 -263 -260 -265 -1 -1 -382 379 -848
845 l-847 847 1002 1002 1003 1003 842 -842 c464 -464 842 -846 840 -851z m66
-369 l582 582 263 -263 262 -262 -845 -845 -845 -845 -845 845 -845 845 262
262 263 263 582 -582 583 -583 583 583z"/>
</g>
</svg>
